<svg xmlns="http://www.w3.org/2000/svg" xmlns:xlink="http://www.w3.org/1999/xlink" width="400" height="200" preserveAspectRatio="xMidYMid" viewBox="0 0 1228.8 614.309">
  <defs>
    <linearGradient id="b">
      <stop offset="0" stop-color="#ed2c88"/>
      <stop offset="1" stop-color="#6e4d9b"/>
    </linearGradient>
    <linearGradient id="a">
      <stop offset="0" stop-color="#ed2c88"/>
      <stop offset="1" stop-color="#6e4d9b"/>
    </linearGradient>
    <linearGradient id="j" x1="26.883" x2="205.1" y1="233.007" y2="55.335" gradientTransform="matrix(1.12123 0 0 .89188 1059.834 -56.989)" gradientUnits="userSpaceOnUse">
      <stop offset="0%" stop-color="#6E4D9B"/>
      <stop offset="14%" stop-color="#77327A"/>
      <stop offset="53%" stop-color="#B31777"/>
      <stop offset="79%" stop-color="#CD0F7E"/>
      <stop offset="100%" stop-color="#ED2C89"/>
    </linearGradient>
    <linearGradient id="i" x1="-69.709" x2="244.282" y1="-60.209" y2="232.89" gradientTransform="matrix(.95821 0 0 1.04361 1059.834 -56.989)" gradientUnits="userSpaceOnUse">
      <stop offset="0%" stop-color="#C06FBB"/>
      <stop offset="100%" stop-color="#6E4D9B"/>
    </linearGradient>
    <linearGradient id="h" x1="226.011" x2="56.485" y1="223.798" y2="24.736" gradientTransform="matrix(.96254 0 0 1.03892 1059.834 -56.989)" gradientUnits="userSpaceOnUse">
      <stop offset="0%" stop-color="#6E4D9B"/>
      <stop offset="14%" stop-color="#77327A"/>
      <stop offset="29%" stop-color="#B31777"/>
      <stop offset="84%" stop-color="#CD0F7E"/>
      <stop offset="100%" stop-color="#ED2C89"/>
    </linearGradient>
    <linearGradient id="g" x1="-76.851" x2="264.241" y1="-65.709" y2="235.27" gradientTransform="matrix(1.00035 0 0 .99965 1059.834 -56.989)" gradientUnits="userSpaceOnUse">
      <stop offset="0%" stop-color="#C06FBB"/>
      <stop offset="100%" stop-color="#6E4D9B"/>
    </linearGradient>
    <linearGradient id="f" x1="-131.949" x2="234.457" y1="-64.779" y2="234.56" gradientTransform="matrix(.99897 0 0 1.00103 1059.834 -56.989)" gradientUnits="userSpaceOnUse">
      <stop offset="0%" stop-color="#C06FBB"/>
      <stop offset="100%" stop-color="#6E4D9B"/>
    </linearGradient>
    <linearGradient id="e" x1="-37.96" x2="205.881" y1="-156.048" y2="245.472" gradientTransform="matrix(1.04292 0 0 .95884 1059.834 -56.989)" gradientUnits="userSpaceOnUse">
      <stop offset="0%" stop-color="#C06FBB"/>
      <stop offset="100%" stop-color="#6E4D9B"/>
    </linearGradient>
    <linearGradient id="d" x1="209.603" x2="40.503" y1="219.222" y2="21.256" gradientTransform="matrix(.96226 0 0 1.03922 1059.834 -56.989)" gradientUnits="userSpaceOnUse">
      <stop offset="0%" stop-color="#6E4D9B"/>
      <stop offset="14%" stop-color="#77327A"/>
      <stop offset="29%" stop-color="#B31777"/>
      <stop offset="84%" stop-color="#CD0F7E"/>
      <stop offset="100%" stop-color="#ED2C89"/>
    </linearGradient>
    <linearGradient id="c" x1="-69.721" x2="244.282" y1="-47.637" y2="195.371" gradientTransform="matrix(.9582 0 0 1.04363 1059.834 -56.989)" gradientUnits="userSpaceOnUse">
      <stop offset="0%" stop-color="#C06FBB"/>
      <stop offset="100%" stop-color="#6E4D9B"/>
    </linearGradient>
    <linearGradient id="k" x1="280.576" x2="739.175" y1="111.934" y2="111.934" gradientTransform="translate(104.524 -59.744)" gradientUnits="userSpaceOnUse" xlink:href="#a"/>
    <linearGradient id="l" x1="284.672" x2="1137.526" y1="255.817" y2="255.817" gradientTransform="translate(-96.7 -32.414)" gradientUnits="userSpaceOnUse" xlink:href="#b"/>
  </defs>
  <path fill="url(#c)" d="M1227.71-10.62l-23.68 15.804-24.396-36.558 23.68-15.805 24.395 36.56z" transform="translate(-573.801 56.617)"/>
  <path fill="url(#d)" d="M1246.964 99.211l40.46 60.63-48.198 32.165-40.46-60.632-7.06-10.576 48.2-32.165 7.058 10.577z" transform="translate(-573.801 56.617)"/>
  <path fill="url(#e)" d="M1186.256 139.721l8.908 13.35-36.686 24.481-15.967-23.926 8.015-5.348 28.672-19.134z" transform="translate(-573.801 56.617)"/>
  <path fill="url(#f)" d="M1267.006 70.548l10.29-6.867 15.966 23.926-23.683 15.805-8.908-13.35 13.393-8.937zm-6.335 19.515l-7.058-10.577 13.393-8.938 7.058 10.577z" transform="translate(-573.801 56.617)"/>
  <path fill="url(#g)" d="M1100.945 73.978l-8.015 5.348-24.398-36.559 36.688-24.482 17.1 25.627-28.672 19.134 28.672-19.135 7.296 10.933-28.673 19.133z" transform="translate(-573.801 56.617)"/>
  <path fill="url(#h)" d="M1190.323 14.333l-48.2 32.165-7.295-10.933-40.082-60.064 48.2-32.164L1183.027 3.4z" transform="translate(-573.801 56.617)"/>
  <path fill="url(#i)" d="M1217.425-3.75l-13.393 8.936-7.297-10.933-17.1-25.626 23.683-15.806 24.397 36.56z" transform="translate(-573.801 56.617)"/>
  <path fill="#714896" d="M583.783 215.473l-7.058-10.577 28.672-19.134 7.058 10.577z"/>
  <path fill="#6f4795" d="M686.87 146.68l-7.058-10.576 13.393-8.938 7.058 10.577z"/>
  <path fill="#88519f" d="M527.144 130.596l-7.296-10.932 28.67-19.135 7.297 10.933-28.673 19.133z"/>
  <path fill="#85509e" d="M630.23 61.804l-7.297-10.933 13.395-8.938 7.295 10.934z"/>
  <path fill="#8d166a" d="M673.163 155.829l-48.2 32.163-7.057-10.576 48.199-32.165 7.058 10.577z"/>
  <path fill="#a70d6f" d="M609.226 60.019l7.296 10.932-48.2 32.165-7.295-10.933 48.2-32.165z"/>
  <path fill="#9e61ad" d="M513.472 51.282l9.097 13.633-13.633 9.097-9.097-13.633z"/>
  <path fill="#8053a3" d="M562.601 214.713l9.097 13.633-13.632 9.097-9.098-13.632z"/>
  <path fill="url(#j)" d="M1100.539 171.825l-39.912-60.296 213.297-142.662 41.852 59.333z" transform="translate(-573.801 56.617)"/>
  <path fill="url(#k)" d="M458.223 41.879V59.69c-6.75-11.812-19.5-19.686-33.937-19.686-21.561 0-39.186 17.624-39.186 39.373 0 21.75 17.625 39.374 39.186 39.374 14.437 0 27.187-7.875 33.937-19.687v17.812h5.624V41.879zm-33.75 71.247c-18.56 0-33.748-15.187-33.748-33.749 0-18.562 15.187-33.749 33.749-33.749 18.562 0 33.749 15.187 33.749 33.75 0 18.56-15.187 33.748-33.75 33.748zM514.701 118.75c12 0 22.5-6.374 28.5-15.749v13.875h5.624V41.879H543.2v42.935c0 15.562-12.562 28.312-28.311 28.312-15.562 0-28.311-12.75-28.311-28.312V41.88h-5.625v42.935c0 18.75 15.187 33.937 33.748 33.937zM578.364 53.69c-2.438 2.625-4.688 5.438-6.375 8.438v-20.25h-5.625v74.998h5.625V82.19c0-19.125 15.562-34.687 34.686-34.687V41.88c-10.687 0-20.624 4.124-28.311 11.812zM650.654 40.004c-21.75 0-39.374 17.624-39.374 39.373 0 21.75 17.624 39.374 39.374 39.374 10.5 0 20.436-4.125 27.748-11.437l-3.937-4.125c-6.375 6.374-14.812 9.937-23.811 9.937-17.625 0-32.25-13.875-33.562-31.124h72.748c.187-.937.187-1.687.187-2.625 0-21.75-17.624-39.373-39.373-39.373zm0 5.624c17.624 0 32.248 13.875 33.56 31.124h-67.122c1.313-17.25 15.937-31.124 33.562-31.124zM733.835 111.25a24.326 24.326 0 0 1-24.374-24.373V-14.37h-5.624V86.877c0 16.5 13.5 29.999 29.998 29.999zM750.554 41.879h-5.625v74.997h5.625zm0-33.75h-5.625v15h5.625zM838.075 41.879V59.69c-6.75-11.812-19.5-19.686-33.936-19.686-21.562 0-39.186 17.624-39.186 39.373 0 21.75 17.624 39.374 39.186 39.374 14.437 0 27.186-7.875 33.936-19.687v17.812h5.625V41.879zm-33.749 71.247c-18.562 0-33.749-15.187-33.749-33.749 0-18.562 15.187-33.749 33.75-33.749 18.56 0 33.748 15.187 33.748 33.75 0 18.56-15.187 33.748-33.749 33.748z" transform="translate(0 285.275)"/>
  <path fill="url(#l)" d="M222.097 211.22c-12 0-22.5 6.374-28.5 15.749v-70.123h-5.624v131.245h5.625v-42.936c0-15.561 12.75-28.311 28.311-28.311 15.75 0 28.312 12.75 28.312 28.311v42.936h5.624v-42.936c0-18.749-15-33.936-33.748-33.936zM340.434 213.094v17.812c-6.75-11.812-19.5-19.687-33.937-19.687-21.561 0-39.186 17.625-39.186 39.374 0 21.749 17.625 39.373 39.186 39.373 14.437 0 27.187-7.874 33.937-19.686v17.811h5.624v-74.997zm-33.75 71.247c-18.561 0-33.748-15.186-33.748-33.748 0-18.562 15.187-33.749 33.749-33.749 18.562 0 33.749 15.187 33.749 33.749 0 18.562-15.187 33.748-33.75 33.748zM400.51 289.966c10.5 0 20.437-4.125 27.936-11.437l-4.124-4.125c-6.375 6.375-14.812 9.937-23.812 9.937-18.562 0-33.749-15.186-33.749-33.748 0-18.562 15.187-33.749 33.749-33.749 9 0 17.437 3.562 23.812 9.937l4.124-3.937c-7.5-7.5-17.436-11.625-27.936-11.625-21.75 0-39.374 17.625-39.374 39.374 0 21.749 17.625 39.373 39.374 39.373zM506.294 215.907l-3.188-4.688-55.498 36.936v-91.309h-5.624v131.245h5.624v-35.06l55.498 36.935 3.188-4.687-52.123-34.686zM550.076 211.22c-21.75 0-39.374 17.624-39.374 39.373s17.625 39.373 39.374 39.373c10.5 0 20.436-4.125 27.749-11.437l-3.938-4.125c-6.374 6.375-14.812 9.937-23.811 9.937-17.625 0-32.25-13.874-33.562-31.123h72.748c.187-.938.187-1.688.187-2.625 0-21.75-17.624-39.374-39.373-39.374zm0 5.624c17.624 0 32.248 13.875 33.56 31.124h-67.122c1.313-17.25 15.937-31.124 33.562-31.124zM616 224.906c-2.438 2.625-4.688 5.438-6.375 8.437v-20.249H604v74.997h5.625v-34.686c0-19.124 15.562-34.686 34.686-34.686v-5.625c-10.687 0-20.624 4.125-28.311 11.812zM726.168 211.22c-12 0-22.499 6.374-28.499 15.749v-13.875h-5.624v74.997h5.624v-42.936c0-15.561 12.75-28.311 28.312-28.311 15.75 0 28.311 12.75 28.311 28.311v42.936h5.625v-42.936c0-18.749-15-33.936-33.749-33.936zM812.954 211.22c-21.75 0-39.374 17.624-39.374 39.373s17.625 39.373 39.374 39.373c10.5 0 20.436-4.125 27.749-11.437l-3.938-4.125c-6.374 6.375-14.812 9.937-23.811 9.937-17.625 0-32.249-13.874-33.561-31.123h72.747c.187-.938.187-1.688.187-2.625 0-21.75-17.624-39.374-39.373-39.374zm0 5.624c17.624 0 32.249 13.875 33.561 31.124h-67.122c1.312-17.25 15.936-31.124 33.56-31.124zM951.534 288.091l28.124-74.06-5.25-1.874-25.499 67.122-25.499-66.185h-5.25l-25.499 66.185-25.499-67.122-5.25 1.875 28.124 74.06h5.25l25.5-66.186 25.498 66.185zM1014.578 289.966c6.937 0 13.312-2.062 18.374-6 5.063-3.937 7.875-9.374 7.875-14.999 0-11.624-9.375-19.312-25.874-21.187-12.187-1.312-19.874-7.312-19.874-15.374 0-8.812 8.437-15.562 19.5-15.562 11.061 0 19.498 6.75 19.498 15.562h5.625c0-5.812-2.625-11.25-7.312-15.187-4.687-3.937-11.062-6-17.812-6-6.937 0-13.124 2.063-17.812 6-4.687 3.937-7.312 9.375-7.312 15.187 0 5.625 2.437 10.687 7.312 14.437 4.313 3.375 10.5 5.812 17.625 6.562 7.687.938 20.811 4.125 20.811 15.562 0 8.437-9.187 15.374-20.624 15.374s-20.624-6.937-20.624-15.374h-5.625c0 5.625 2.812 11.062 7.875 15 5.062 3.937 11.437 6 18.374 6z" transform="translate(0 285.275)"/>
</svg>
